<mxfile host="65bd71144e">
    <diagram id="g_arAwNmNOYlzsIwaZbk" name="Darstellungselemente">
        <mxGraphModel dx="854" dy="718" grid="0" gridSize="10" guides="1" tooltips="1" connect="1" arrows="1" fold="1" page="1" pageScale="1" pageWidth="827" pageHeight="1169" math="0" shadow="0">
            <root>
                <mxCell id="0"/>
                <mxCell id="1" parent="0"/>
                <mxCell id="25" style="edgeStyle=none;html=1;endArrow=none;endFill=0;sketch=1;" edge="1" parent="1" source="2" target="6">
                    <mxGeometry relative="1" as="geometry"/>
                </mxCell>
                <mxCell id="2" value="Bezeichner" style="swimlane;fontStyle=1;align=center;verticalAlign=top;childLayout=stackLayout;horizontal=1;startSize=26;horizontalStack=0;resizeParent=1;resizeParentMax=0;resizeLast=0;collapsible=1;marginBottom=0;sketch=1;" vertex="1" parent="1">
                    <mxGeometry x="130" y="150" width="160" height="86" as="geometry"/>
                </mxCell>
                <mxCell id="3" value="Eigenschaften" style="text;strokeColor=none;fillColor=none;align=left;verticalAlign=top;spacingLeft=4;spacingRight=4;overflow=hidden;rotatable=0;points=[[0,0.5],[1,0.5]];portConstraint=eastwest;sketch=1;" vertex="1" parent="2">
                    <mxGeometry y="26" width="160" height="26" as="geometry"/>
                </mxCell>
                <mxCell id="4" value="" style="line;strokeWidth=1;fillColor=none;align=left;verticalAlign=middle;spacingTop=-1;spacingLeft=3;spacingRight=3;rotatable=0;labelPosition=right;points=[];portConstraint=eastwest;sketch=1;" vertex="1" parent="2">
                    <mxGeometry y="52" width="160" height="8" as="geometry"/>
                </mxCell>
                <mxCell id="5" value="Methoden" style="text;strokeColor=none;fillColor=none;align=left;verticalAlign=top;spacingLeft=4;spacingRight=4;overflow=hidden;rotatable=0;points=[[0,0.5],[1,0.5]];portConstraint=eastwest;sketch=1;" vertex="1" parent="2">
                    <mxGeometry y="60" width="160" height="26" as="geometry"/>
                </mxCell>
                <mxCell id="19" style="edgeStyle=none;html=1;entryX=0.5;entryY=1;entryDx=0;entryDy=0;endArrow=block;endFill=0;dashed=1;sketch=1;" edge="1" parent="1" source="6" target="18">
                    <mxGeometry relative="1" as="geometry"/>
                </mxCell>
                <mxCell id="24" style="edgeStyle=none;html=1;endArrow=block;endFill=0;sketch=1;" edge="1" parent="1" source="6" target="20">
                    <mxGeometry relative="1" as="geometry"/>
                </mxCell>
                <mxCell id="6" value="Bezeichner" style="swimlane;fontStyle=1;align=center;verticalAlign=top;childLayout=stackLayout;horizontal=1;startSize=26;horizontalStack=0;resizeParent=1;resizeParentMax=0;resizeLast=0;collapsible=1;marginBottom=0;sketch=1;" vertex="1" parent="1">
                    <mxGeometry x="390" y="150" width="160" height="86" as="geometry"/>
                </mxCell>
                <mxCell id="7" value="Eigenschaften" style="text;strokeColor=none;fillColor=none;align=left;verticalAlign=top;spacingLeft=4;spacingRight=4;overflow=hidden;rotatable=0;points=[[0,0.5],[1,0.5]];portConstraint=eastwest;sketch=1;" vertex="1" parent="6">
                    <mxGeometry y="26" width="160" height="26" as="geometry"/>
                </mxCell>
                <mxCell id="8" value="" style="line;strokeWidth=1;fillColor=none;align=left;verticalAlign=middle;spacingTop=-1;spacingLeft=3;spacingRight=3;rotatable=0;labelPosition=right;points=[];portConstraint=eastwest;sketch=1;" vertex="1" parent="6">
                    <mxGeometry y="52" width="160" height="8" as="geometry"/>
                </mxCell>
                <mxCell id="9" value="Methoden" style="text;strokeColor=none;fillColor=none;align=left;verticalAlign=top;spacingLeft=4;spacingRight=4;overflow=hidden;rotatable=0;points=[[0,0.5],[1,0.5]];portConstraint=eastwest;sketch=1;" vertex="1" parent="6">
                    <mxGeometry y="60" width="160" height="26" as="geometry"/>
                </mxCell>
                <mxCell id="18" value="«interface»&lt;br&gt;&lt;b&gt;IBezeichner&lt;/b&gt;" style="html=1;sketch=1;" vertex="1" parent="1">
                    <mxGeometry x="415" y="60" width="110" height="50" as="geometry"/>
                </mxCell>
                <mxCell id="20" value="«interface»&#10;IBezeichner" style="swimlane;fontStyle=1;align=center;verticalAlign=top;childLayout=stackLayout;horizontal=1;startSize=40;horizontalStack=0;resizeParent=1;resizeParentMax=0;resizeLast=0;collapsible=1;marginBottom=0;sketch=1;" vertex="1" parent="1">
                    <mxGeometry x="610" y="160" width="160" height="66" as="geometry"/>
                </mxCell>
                <mxCell id="21" value="Eigenschaften &amp; Methoden" style="text;strokeColor=none;fillColor=none;align=left;verticalAlign=top;spacingLeft=4;spacingRight=4;overflow=hidden;rotatable=0;points=[[0,0.5],[1,0.5]];portConstraint=eastwest;sketch=1;" vertex="1" parent="20">
                    <mxGeometry y="40" width="160" height="26" as="geometry"/>
                </mxCell>
                <mxCell id="26" value="1" style="text;html=1;align=center;verticalAlign=middle;resizable=0;points=[];autosize=1;strokeColor=none;fillColor=none;sketch=1;" vertex="1" parent="1">
                    <mxGeometry x="290" y="170" width="20" height="20" as="geometry"/>
                </mxCell>
                <mxCell id="27" value="0..1" style="text;html=1;align=center;verticalAlign=middle;resizable=0;points=[];autosize=1;strokeColor=none;fillColor=none;sketch=1;" vertex="1" parent="1">
                    <mxGeometry x="355" y="170" width="40" height="20" as="geometry"/>
                </mxCell>
                <mxCell id="29" value="Bezeichner" style="swimlane;fontStyle=1;align=center;verticalAlign=top;childLayout=stackLayout;horizontal=1;startSize=26;horizontalStack=0;resizeParent=1;resizeParentMax=0;resizeLast=0;collapsible=1;marginBottom=0;sketch=1;" vertex="1" parent="1">
                    <mxGeometry x="381" y="290" width="160" height="86" as="geometry"/>
                </mxCell>
                <mxCell id="30" value="Eigenschaften" style="text;strokeColor=none;fillColor=none;align=left;verticalAlign=top;spacingLeft=4;spacingRight=4;overflow=hidden;rotatable=0;points=[[0,0.5],[1,0.5]];portConstraint=eastwest;sketch=1;" vertex="1" parent="29">
                    <mxGeometry y="26" width="160" height="26" as="geometry"/>
                </mxCell>
                <mxCell id="31" value="" style="line;strokeWidth=1;fillColor=none;align=left;verticalAlign=middle;spacingTop=-1;spacingLeft=3;spacingRight=3;rotatable=0;labelPosition=right;points=[];portConstraint=eastwest;sketch=1;" vertex="1" parent="29">
                    <mxGeometry y="52" width="160" height="8" as="geometry"/>
                </mxCell>
                <mxCell id="32" value="Methoden" style="text;strokeColor=none;fillColor=none;align=left;verticalAlign=top;spacingLeft=4;spacingRight=4;overflow=hidden;rotatable=0;points=[[0,0.5],[1,0.5]];portConstraint=eastwest;sketch=1;" vertex="1" parent="29">
                    <mxGeometry y="60" width="160" height="26" as="geometry"/>
                </mxCell>
                <mxCell id="33" style="edgeStyle=none;html=1;endArrow=open;endFill=0;entryX=0.556;entryY=0.012;entryDx=0;entryDy=0;entryPerimeter=0;sketch=1;" edge="1" parent="1" source="6" target="29">
                    <mxGeometry relative="1" as="geometry">
                        <mxPoint x="220" y="370" as="sourcePoint"/>
                        <mxPoint x="320" y="370" as="targetPoint"/>
                    </mxGeometry>
                </mxCell>
                <mxCell id="34" value="Zulässige Mengenverhältnisse" style="shape=note;size=15;align=left;spacingLeft=10;html=1;whiteSpace=wrap;fillColor=#fff2cc;strokeColor=#d6b656;sketch=0;" vertex="1" parent="1">
                    <mxGeometry x="242" y="65" width="128" height="40" as="geometry"/>
                </mxCell>
                <mxCell id="36" value="" style="edgeStyle=none;endArrow=none;dashed=1;html=1;sketch=1;" edge="1" source="34" parent="1" target="26">
                    <mxGeometry x="1" relative="1" as="geometry">
                        <mxPoint x="270" y="45" as="targetPoint"/>
                    </mxGeometry>
                </mxCell>
                <mxCell id="37" value="" style="edgeStyle=none;endArrow=none;dashed=1;html=1;sketch=1;exitX=0.5;exitY=1;exitDx=0;exitDy=0;exitPerimeter=0;" edge="1" parent="1" source="34" target="27">
                    <mxGeometry x="1" relative="1" as="geometry">
                        <mxPoint x="312.6315789473683" y="180" as="targetPoint"/>
                        <mxPoint x="329.7368421052631" y="115" as="sourcePoint"/>
                    </mxGeometry>
                </mxCell>
                <mxCell id="5us63YHnCvJeFPE7WOXq-37" value="&lt;b&gt;Mengenverhältnisse&lt;/b&gt;&lt;br&gt;1&amp;nbsp; &amp;nbsp; &amp;nbsp; &amp;nbsp; genau eines&lt;br&gt;1..*&amp;nbsp; &amp;nbsp; &amp;nbsp;mindestens eines&lt;br&gt;0..*&amp;nbsp; &amp;nbsp; &amp;nbsp;0 oder mehr&lt;br&gt;0..1&amp;nbsp; &amp;nbsp; eines oder keines&lt;br&gt;n..m&amp;nbsp; &amp;nbsp;zwischen n und m" style="text;html=1;align=left;verticalAlign=middle;resizable=0;points=[];autosize=1;strokeColor=none;fillColor=none;fontSize=15;" vertex="1" parent="1">
                    <mxGeometry x="130" y="267" width="172" height="112" as="geometry"/>
                </mxCell>
            </root>
        </mxGraphModel>
    </diagram>
    <diagram id="ar2Gz9SCFRicgbXK86iz" name="Sichtabrkeiten">
        <mxGraphModel dx="854" dy="718" grid="0" gridSize="10" guides="1" tooltips="1" connect="1" arrows="1" fold="1" page="1" pageScale="1" pageWidth="827" pageHeight="1169" math="0" shadow="0">
            <root>
                <mxCell id="IvyjhiwmlgVn11NXYP8L-0"/>
                <mxCell id="IvyjhiwmlgVn11NXYP8L-1" parent="IvyjhiwmlgVn11NXYP8L-0"/>
                <mxCell id="IvyjhiwmlgVn11NXYP8L-2" value="Füllstandsanzeige" style="swimlane;fontStyle=1;align=center;verticalAlign=top;childLayout=stackLayout;horizontal=1;startSize=26;horizontalStack=0;resizeParent=1;resizeParentMax=0;resizeLast=0;collapsible=1;marginBottom=0;sketch=1;" vertex="1" parent="IvyjhiwmlgVn11NXYP8L-1">
                    <mxGeometry x="261" y="154" width="186" height="171" as="geometry"/>
                </mxCell>
                <mxCell id="IvyjhiwmlgVn11NXYP8L-3" value="+ Füllstand: int" style="text;strokeColor=none;fillColor=none;align=left;verticalAlign=top;spacingLeft=4;spacingRight=4;overflow=hidden;rotatable=0;points=[[0,0.5],[1,0.5]];portConstraint=eastwest;sketch=1;" vertex="1" parent="IvyjhiwmlgVn11NXYP8L-2">
                    <mxGeometry y="26" width="186" height="26" as="geometry"/>
                </mxCell>
                <mxCell id="IvyjhiwmlgVn11NXYP8L-6" value="  «readonly»&#10;# encoding: Encoding" style="text;strokeColor=none;fillColor=none;align=left;verticalAlign=top;spacingLeft=4;spacingRight=4;overflow=hidden;rotatable=0;points=[[0,0.5],[1,0.5]];portConstraint=eastwest;sketch=1;" vertex="1" parent="IvyjhiwmlgVn11NXYP8L-2">
                    <mxGeometry y="52" width="186" height="36" as="geometry"/>
                </mxCell>
                <mxCell id="zm340lZrFSbXy4PsSY8b-0" value="- id: Guid" style="text;strokeColor=none;fillColor=none;align=left;verticalAlign=top;spacingLeft=4;spacingRight=4;overflow=hidden;rotatable=0;points=[[0,0.5],[1,0.5]];portConstraint=eastwest;sketch=1;fontStyle=2" vertex="1" parent="IvyjhiwmlgVn11NXYP8L-2">
                    <mxGeometry y="88" width="186" height="23" as="geometry"/>
                </mxCell>
                <mxCell id="IvyjhiwmlgVn11NXYP8L-4" value="" style="line;strokeWidth=1;fillColor=none;align=left;verticalAlign=middle;spacingTop=-1;spacingLeft=3;spacingRight=3;rotatable=0;labelPosition=right;points=[];portConstraint=eastwest;sketch=1;" vertex="1" parent="IvyjhiwmlgVn11NXYP8L-2">
                    <mxGeometry y="111" width="186" height="8" as="geometry"/>
                </mxCell>
                <mxCell id="IvyjhiwmlgVn11NXYP8L-7" value="+ KomplettAuffüllen()" style="text;strokeColor=none;fillColor=none;align=left;verticalAlign=top;spacingLeft=4;spacingRight=4;overflow=hidden;rotatable=0;points=[[0,0.5],[1,0.5]];portConstraint=eastwest;sketch=1;" vertex="1" parent="IvyjhiwmlgVn11NXYP8L-2">
                    <mxGeometry y="119" width="186" height="26" as="geometry"/>
                </mxCell>
                <mxCell id="IvyjhiwmlgVn11NXYP8L-5" value="+ Entnehmen(int: menge) : bool" style="text;strokeColor=none;fillColor=none;align=left;verticalAlign=top;spacingLeft=4;spacingRight=4;overflow=hidden;rotatable=0;points=[[0,0.5],[1,0.5]];portConstraint=eastwest;sketch=1;" vertex="1" parent="IvyjhiwmlgVn11NXYP8L-2">
                    <mxGeometry y="145" width="186" height="26" as="geometry"/>
                </mxCell>
                <mxCell id="IvyjhiwmlgVn11NXYP8L-9" value="&lt;b&gt;Sichtbarkeiten:&lt;/b&gt;&lt;br&gt;+ öffentlich&lt;br style=&quot;font-size: 15px&quot;&gt;- privat&lt;br style=&quot;font-size: 15px&quot;&gt;# eingeschränkt (protected)&lt;br&gt;&lt;br&gt;&lt;b&gt;Muster:&lt;/b&gt;&lt;br&gt;Name(parameterName: Typ): Rückgabetyp" style="text;html=1;align=left;verticalAlign=middle;resizable=0;points=[];autosize=1;strokeColor=none;fillColor=none;fontSize=15;sketch=1;" vertex="1" parent="IvyjhiwmlgVn11NXYP8L-1">
                    <mxGeometry x="467" y="156" width="297" height="130" as="geometry"/>
                </mxCell>
                <mxCell id="zm340lZrFSbXy4PsSY8b-2" value="Beides schreibgeschützt, beides nicht UML konform!" style="shape=note;size=15;align=left;spacingLeft=10;html=1;whiteSpace=wrap;sketch=0;fontSize=15;fillColor=#fff2cc;strokeColor=#d6b656;" vertex="1" parent="IvyjhiwmlgVn11NXYP8L-1">
                    <mxGeometry x="96" y="206" width="137" height="77" as="geometry"/>
                </mxCell>
                <mxCell id="zm340lZrFSbXy4PsSY8b-3" value="" style="edgeStyle=none;endArrow=none;exitX=0;exitY=0;dashed=1;html=1;sketch=0;fontSize=15;exitDx=137;exitDy=15;exitPerimeter=0;" edge="1" source="zm340lZrFSbXy4PsSY8b-2" parent="IvyjhiwmlgVn11NXYP8L-1" target="IvyjhiwmlgVn11NXYP8L-6">
                    <mxGeometry x="1" relative="1" as="geometry">
                        <mxPoint x="185" y="17" as="targetPoint"/>
                    </mxGeometry>
                </mxCell>
                <mxCell id="zm340lZrFSbXy4PsSY8b-4" value="" style="edgeStyle=none;endArrow=none;exitX=0;exitY=0;dashed=1;html=1;sketch=0;fontSize=15;exitDx=137;exitDy=46;exitPerimeter=0;" edge="1" source="zm340lZrFSbXy4PsSY8b-2" parent="IvyjhiwmlgVn11NXYP8L-1" target="zm340lZrFSbXy4PsSY8b-0">
                    <mxGeometry x="1" relative="1" as="geometry">
                        <mxPoint x="345" y="17" as="targetPoint"/>
                    </mxGeometry>
                </mxCell>
            </root>
        </mxGraphModel>
    </diagram>
    <diagram id="9UWHdMIcTzBdS_O0OdE6" name="Beispiel">
        <mxGraphModel dx="1025" dy="862" grid="0" gridSize="10" guides="1" tooltips="1" connect="1" arrows="1" fold="1" page="1" pageScale="1" pageWidth="827" pageHeight="1169" math="0" shadow="0">
            <root>
                <mxCell id="SG6C-uZLZeXkzcZPaywi-0"/>
                <mxCell id="SG6C-uZLZeXkzcZPaywi-1" parent="SG6C-uZLZeXkzcZPaywi-0"/>
            </root>
        </mxGraphModel>
    </diagram>
</mxfile>